<svg width="110" height="110" viewBox="0 0 110 110" fill="none" xmlns="http://www.w3.org/2000/svg">
<path d="M55 0C24.6169 0 0 24.6169 0 55C0 85.3831 24.6169 110 55 110C85.3831 110 110 85.3831 110 55C110 24.6169 85.3831 0 55 0ZM55 21.2903C65.7782 21.2903 74.5161 30.0282 74.5161 40.8064C74.5161 51.5847 65.7782 60.3226 55 60.3226C44.2218 60.3226 35.4839 51.5847 35.4839 40.8064C35.4839 30.0282 44.2218 21.2903 55 21.2903ZM55 97.5806C41.9819 97.5806 30.3165 91.6814 22.5101 82.4556C26.6794 74.6048 34.8407 69.1936 44.3548 69.1936C44.8871 69.1936 45.4194 69.2823 45.9294 69.4375C48.8125 70.3689 51.8286 70.9677 55 70.9677C58.1714 70.9677 61.2097 70.3689 64.0706 69.4375C64.5806 69.2823 65.1129 69.1936 65.6452 69.1936C75.1593 69.1936 83.3206 74.6048 87.4899 82.4556C79.6835 91.6814 68.0181 97.5806 55 97.5806Z" fill="black"/>
</svg>
