<svg width="40" height="40" viewBox="0 0 40 40" fill="none" xmlns="http://www.w3.org/2000/svg">
<path d="M20 0C8.95161 0 0 8.9526 0 20.0022C0 31.0518 8.95161 40.0044 20 40.0044C31.0484 40.0044 40 31.0518 40 20.0022C40 8.9526 31.0484 0 20 0ZM20 7.74279C23.9194 7.74279 27.0968 10.9206 27.0968 14.8403C27.0968 18.7601 23.9194 21.9379 20 21.9379C16.0806 21.9379 12.9032 18.7601 12.9032 14.8403C12.9032 10.9206 16.0806 7.74279 20 7.74279ZM20 35.4878C15.2661 35.4878 11.0242 33.3424 8.18548 29.9872C9.70161 27.132 12.6694 25.1641 16.129 25.1641C16.3226 25.1641 16.5161 25.1963 16.7016 25.2528C17.75 25.5915 18.8468 25.8093 20 25.8093C21.1532 25.8093 22.2581 25.5915 23.2984 25.2528C23.4839 25.1963 23.6774 25.1641 23.871 25.1641C27.3306 25.1641 30.2984 27.132 31.8145 29.9872C28.9758 33.3424 24.7339 35.4878 20 35.4878Z" fill="black"/>
</svg>
