<svg width="43" height="43" viewBox="0 0 43 43" fill="none" xmlns="http://www.w3.org/2000/svg">
<path d="M9.27539 35.2115C9.3019 33.199 10.1197 31.2778 11.5519 29.8637C12.9841 28.4495 14.9155 27.6561 16.9282 27.6551H26.1247C28.1374 27.6561 30.0687 28.4496 31.5009 29.8637C32.9331 31.2778 33.7509 33.199 33.7775 35.2115C30.416 38.2406 26.0514 39.917 21.5264 39.917C17.0015 39.917 12.6369 38.2406 9.27539 35.2115ZM28.4238 16.1595C28.4238 17.5237 28.0193 18.8572 27.2614 19.9915C26.5035 21.1258 25.4263 22.0098 24.1659 22.5318C22.9056 23.0539 21.5188 23.1905 20.1808 22.9243C18.8429 22.6582 17.6139 22.0013 16.6493 21.0367C15.6847 20.0721 15.0278 18.8431 14.7616 17.5051C14.4955 16.1672 14.6321 14.7804 15.1541 13.52C15.6762 12.2597 16.5602 11.1825 17.6945 10.4246C18.8287 9.66673 20.1623 9.26221 21.5264 9.26221C23.3557 9.26221 25.1101 9.98889 26.4036 11.2824C27.6971 12.5759 28.4238 14.3303 28.4238 16.1595Z" fill="#84A584"/>
<path d="M38.0001 35.2118C40.2007 32.5634 41.7311 29.424 42.4619 26.0591C43.1927 22.6942 43.1023 19.2028 42.1985 15.8802C41.2947 12.5576 39.604 9.5015 37.2693 6.97047C34.9347 4.43944 32.0249 2.50789 28.7859 1.3392C25.547 0.170514 22.0742 -0.200938 18.6613 0.256264C15.2485 0.713466 11.9959 1.98587 9.17882 3.96586C6.36168 5.94586 4.06283 8.57519 2.47671 11.6315C0.890585 14.6877 0.0638429 18.081 0.0664122 21.5244C0.0676127 26.5306 1.83184 31.3765 5.04951 35.2118L5.01885 35.2372C5.12614 35.3667 5.24876 35.4774 5.35943 35.6038C5.49737 35.7626 5.64513 35.9104 5.7886 36.0649C6.21776 36.5298 6.65827 36.9772 7.12208 37.3984C7.26233 37.5257 7.40778 37.6455 7.55125 37.7688C8.04173 38.1917 8.54508 38.5922 9.06866 38.9664C9.13626 39.0142 9.19619 39.0726 9.26424 39.1206V39.1011C12.8541 41.6273 17.1366 42.9831 21.5262 42.9831C25.9158 42.9831 30.1983 41.6273 33.7881 39.1011V39.1203C33.8562 39.0723 33.9161 39.0139 33.9837 38.9661C34.5067 38.5919 35.0106 38.1914 35.5011 37.7685C35.6446 37.6459 35.79 37.5254 35.9303 37.3981C36.3939 36.9767 36.8346 36.5293 37.2637 36.0646C37.4068 35.9104 37.554 35.7623 37.6929 35.6035C37.8031 35.4771 37.9262 35.3664 38.0335 35.2369L38.0001 35.2118ZM21.5248 9.26246C22.889 9.26246 24.2225 9.66698 25.3567 10.4249C26.491 11.1828 27.3751 12.26 27.8971 13.5203C28.4191 14.7806 28.5557 16.1674 28.2896 17.5054C28.0235 18.8433 27.3666 20.0723 26.4019 21.0369C25.4373 22.0016 24.2083 22.6585 22.8704 22.9246C21.5324 23.1907 20.1456 23.0541 18.8853 22.5321C17.625 22.0101 16.5478 21.126 15.7899 19.9917C15.032 18.8575 14.6275 17.524 14.6275 16.1598C14.6275 14.3305 15.3541 12.5761 16.6476 11.2826C17.9411 9.98914 19.6955 9.26246 21.5248 9.26246ZM9.27374 35.2118C9.30021 33.1992 10.118 31.278 11.5502 29.8639C12.9824 28.4497 14.9138 27.6563 16.9266 27.6554H26.123C28.1357 27.6563 30.0671 28.4497 31.4993 29.8639C32.9315 31.2781 33.7493 33.1992 33.7758 35.2118C30.4143 38.2409 26.0498 39.9173 21.5248 39.9173C16.9998 39.9173 12.6353 38.2409 9.27374 35.2118Z" fill="white"/>
</svg>
